<svg width="26" height="25" viewBox="0 0 26 25" fill="none" xmlns="http://www.w3.org/2000/svg">
<path d="M23.3604 6.56001C24.244 6.56001 24.9604 7.27636 24.9604 8.16001V16.96C24.9604 17.8437 24.244 18.56 23.3604 18.56L21.7604 18.56V22.56L16.1604 18.56H11.3604" stroke="#CE0A86" stroke-width="1.92" stroke-miterlimit="10" stroke-linecap="round"/>
<path d="M18.56 0.960007L2.55996 0.960007C1.67631 0.960007 0.959961 1.67635 0.959961 2.56001L0.959961 12.96C0.959961 13.8437 1.67631 14.56 2.55996 14.56L4.95996 14.56L4.95996 20.16L11.36 14.56L18.56 14.56C19.4436 14.56 20.16 13.8437 20.16 12.96L20.16 2.56001C20.16 1.67635 19.4436 0.960007 18.56 0.960007Z" stroke="#CE0A86" stroke-width="1.92" stroke-miterlimit="10" stroke-linecap="round"/>
</svg>
