<svg width="20" height="20" viewBox="0 0 20 20" fill="none" xmlns="http://www.w3.org/2000/svg">
<path d="M10.0001 9.85714C8.028 9.85714 6.42871 8.25786 6.42871 6.28571V5.57143C6.42871 3.59929 8.028 2 10.0001 2C11.9723 2 13.5716 3.59929 13.5716 5.57143V6.28571C13.5716 8.25786 11.9723 9.85714 10.0001 9.85714Z" stroke="#171A1F" stroke-width="1.71429" stroke-miterlimit="10" stroke-linecap="square"/>
<path d="M17.1426 16.3629C17.1426 15.0772 16.2876 13.9465 15.0469 13.6086C13.6941 13.2393 11.8469 12.8572 9.99979 12.8572C8.15265 12.8572 6.30551 13.2393 4.95265 13.6086C3.71193 13.9465 2.85693 15.0772 2.85693 16.3629L2.85693 17.8572L17.1426 17.8572V16.3629Z" stroke="#171A1F" stroke-width="1.71429" stroke-miterlimit="10" stroke-linecap="square"/>
</svg>
