<svg width="24" height="24" viewBox="0 0 24 24" fill="none" xmlns="http://www.w3.org/2000/svg">
<path d="M18.0199 11.14V8.56004C18.0199 5.23528 15.3247 2.54004 11.9999 2.54004C8.67515 2.54004 5.9799 5.23528 5.9799 8.56004V11.14C5.9799 13.978 3.3999 14.666 3.3999 16.3C3.3999 17.762 6.7539 18.88 11.9999 18.88C17.2459 18.88 20.5999 17.762 20.5999 16.3C20.5999 14.666 18.0199 13.978 18.0199 11.14Z" stroke="black" stroke-width="2.064" stroke-miterlimit="10" stroke-linecap="round"/>
<path d="M12 20.5631C11.1305 20.5631 10.3135 20.5338 9.54468 20.4771C9.88108 21.5501 10.8754 22.2805 12 22.2805C13.1246 22.2805 14.1189 21.5501 14.4553 20.4771C13.6864 20.5338 12.8694 20.5631 12 20.5631Z" fill="black"/>
</svg>
