<svg width="16" height="16" viewBox="0 0 16 16" fill="none" xmlns="http://www.w3.org/2000/svg">
<path d="M16.0006 7.99891C15.9999 3.74331 12.6677 0.233076 8.41791 0.0110656C4.16811 -0.210945 0.488316 2.93299 0.044234 7.16535C-0.399848 11.3977 2.54723 15.237 6.75056 15.9019L6.75056 10.3114L4.71956 10.3114L4.71956 7.99891L6.75056 7.99891L6.75056 6.23641C6.75056 4.23141 7.94506 3.12391 9.77206 3.12391C10.3721 3.13223 10.9707 3.18437 11.5631 3.27991V5.24891H10.5541C10.2058 5.20265 9.85534 5.31731 9.60175 5.56049C9.34816 5.80367 9.21893 6.14899 9.25056 6.49891V7.99891L11.4696 7.99891L11.1146 10.3114H9.25056L9.25056 15.9019C13.1384 15.2869 16.0012 11.9351 16.0006 7.99891Z" fill="#379AE6"/>
</svg>
