<svg width="24" height="24" viewBox="0 0 24 24" fill="none" xmlns="http://www.w3.org/2000/svg">
<path d="M12.0002 14.58C13.4251 14.58 14.5802 13.4249 14.5802 12C14.5802 10.5751 13.4251 9.42004 12.0002 9.42004C10.5753 9.42004 9.42017 10.5751 9.42017 12C9.42017 13.4249 10.5753 14.58 12.0002 14.58Z" stroke="black" stroke-width="2.064" stroke-miterlimit="10" stroke-linecap="square"/>
<path d="M18.8801 12C18.8791 11.5046 18.8249 11.0107 18.7184 10.5269L21.0525 8.75956L19.3325 5.78052L16.6295 6.92088C15.8975 6.24982 15.0287 5.74545 14.083 5.44254L13.7201 2.54004L10.2801 2.54004L9.91719 5.44254C8.97149 5.74545 8.10271 6.24982 7.37073 6.92088L4.66775 5.78052L2.94775 8.75956L5.28179 10.5269C5.06627 11.4972 5.06627 12.5029 5.28179 13.4732L2.94775 15.2405L4.66775 18.2196L7.37073 17.0792C8.10271 17.7503 8.97149 18.2546 9.91719 18.5575L10.2801 21.46H13.7201L14.083 18.5575C15.0287 18.2546 15.8975 17.7503 16.6295 17.0792L19.3325 18.2196L21.0525 15.2405L18.7184 13.4732C18.8249 12.9894 18.8791 12.4955 18.8801 12Z" stroke="black" stroke-width="2.064" stroke-miterlimit="10" stroke-linecap="round"/>
</svg>
