<svg width="15" height="15" viewBox="0 0 15 15" fill="none" xmlns="http://www.w3.org/2000/svg">
<path d="M14.6983 6.13659L7.5393 6.13659L7.5393 9.20459L11.5968 9.20459C10.9468 11.2501 9.3468 11.9321 7.5068 11.9321C5.54754 11.9347 3.81907 10.6505 3.25596 8.77389C2.69285 6.89729 3.42874 4.87363 5.06573 3.79709C6.70273 2.72054 8.85235 2.84659 10.3523 4.10709L12.5818 1.98359C10.1125 -0.290866 6.43245 -0.647279 3.57254 1.11104C0.712637 2.86936 -0.630411 6.31404 0.28456 9.54415C1.19953 12.7743 4.14961 15.0029 7.5068 15.0001C11.6423 15.0001 15.3803 12.2726 14.6983 6.13659Z" fill="#DE3B40"/>
</svg>
