<svg width="20" height="20" viewBox="0 0 20 20" fill="none" xmlns="http://www.w3.org/2000/svg">
<path d="M13.5716 6.42859V5.7143C13.5809 4.77662 13.2174 3.87361 12.5611 3.20387C11.9047 2.53413 11.0093 2.15249 10.0716 2.14288H10.0001C9.06245 2.13355 8.15945 2.49702 7.48971 3.15337C6.81996 3.80971 6.43832 4.70519 6.42871 5.64288V6.42859" stroke="#171A1F" stroke-width="1.71429" stroke-miterlimit="10" stroke-linecap="square"/>
<rect x="3.57129" y="9.28577" width="12.8571" height="8.57143" stroke="#171A1F" stroke-width="1.71429" stroke-miterlimit="10"/>
<path d="M9.99986 15.0001C10.7888 15.0001 11.4284 14.3605 11.4284 13.5715C11.4284 12.7825 10.7888 12.1429 9.99986 12.1429C9.21088 12.1429 8.57129 12.7825 8.57129 13.5715C8.57129 14.3605 9.21088 15.0001 9.99986 15.0001Z" stroke="#171A1F" stroke-width="1.71429" stroke-miterlimit="10" stroke-linecap="square"/>
</svg>
