<svg width="24" height="24" viewBox="0 0 24 24" fill="none" xmlns="http://www.w3.org/2000/svg">
<path d="M9.81857 17.2166L7.03886 18.4114C6.40886 18.6823 6 19.302 6 19.9877V21.4286L18 21.4286V19.9877C18 19.302 17.5911 18.6823 16.9611 18.4123L14.1746 17.2226" stroke="#565E6C" stroke-width="2.05714" stroke-miterlimit="10"/>
<path d="M11.9999 5.99998C12.9467 5.99998 13.7142 5.23247 13.7142 4.2857C13.7142 3.33892 12.9467 2.57141 11.9999 2.57141C11.0532 2.57141 10.2856 3.33892 10.2856 4.2857C10.2856 5.23247 11.0532 5.99998 11.9999 5.99998Z" stroke="#565E6C" stroke-width="2.05714" stroke-miterlimit="10" stroke-linecap="square"/>
<path d="M19.7143 10.2857C20.6611 10.2857 21.4286 9.51818 21.4286 8.5714C21.4286 7.62463 20.6611 6.85712 19.7143 6.85712C18.7675 6.85712 18 7.62463 18 8.5714C18 9.51818 18.7675 10.2857 19.7143 10.2857Z" stroke="#565E6C" stroke-width="2.05714" stroke-miterlimit="10" stroke-linecap="square"/>
<path d="M4.28557 10.2857C5.23235 10.2857 5.99986 9.51818 5.99986 8.5714C5.99986 7.62463 5.23235 6.85712 4.28557 6.85712C3.3388 6.85712 2.57129 7.62463 2.57129 8.5714C2.57129 9.51818 3.3388 10.2857 4.28557 10.2857Z" stroke="#565E6C" stroke-width="2.05714" stroke-miterlimit="10" stroke-linecap="square"/>
<path d="M11.9999 18C10.1064 18 8.57129 16.4648 8.57129 14.5714L8.57129 13.7143C8.57129 11.8208 10.1064 10.2857 11.9999 10.2857C13.8933 10.2857 15.4284 11.8208 15.4284 13.7143V14.5714C15.4284 16.4648 13.8933 18 11.9999 18Z" stroke="#565E6C" stroke-width="2.05714" stroke-miterlimit="10" stroke-linecap="square"/>
</svg>
