<svg width="33" height="15" viewBox="0 0 33 15" fill="none" xmlns="http://www.w3.org/2000/svg">
<path d="M8.00627 13.3645L10.2969 10.352C10.6165 9.93328 11.2558 9.93328 11.5695 10.352L13.8602 13.3645C14.1858 13.7948 13.878 14.4113 13.3275 14.4113H8.53898C7.98852 14.4113 7.67479 13.7948 8.00627 13.3645Z" fill="#C90B2F"/>
<path d="M32.6273 13.4065L22.6578 0.309376C22.343 -0.103125 21.7133 -0.103125 21.4043 0.309376L18.0461 4.72089C17.8479 4.98444 17.8479 5.33967 18.0461 5.60321L19.1597 7.06417C19.457 7.45949 20.0576 7.45949 20.3607 7.06417L21.5268 5.53446C21.7833 5.19641 22.2963 5.19641 22.547 5.53446L28.8261 13.7789C29.1409 14.1914 29.6306 14.432 30.1554 14.432H32.1085C32.6507 14.432 32.9597 13.8247 32.6332 13.4007L32.6273 13.4065Z" fill="#CE0A86"/>
<path d="M21.2984 13.4011L17.0771 7.8517L15.0333 5.16574L11.3419 0.309253C11.0274 -0.103084 10.3986 -0.103084 10.09 0.309253L0.133446 13.4011C-0.192615 13.8249 0.11598 14.432 0.657475 14.432H2.60805C3.13207 14.432 3.62116 14.1914 3.93559 13.7791L10.2065 5.53798C10.4627 5.2058 10.975 5.2058 11.2254 5.53798L12.9896 7.8517L15.0333 10.5376L17.4963 13.7791C17.8107 14.1914 18.2998 14.432 18.8238 14.432H20.7744C21.3159 14.432 21.6187 13.8249 21.2984 13.4011Z" fill="#CE0A86"/>
</svg>
