<svg width="134" height="49" viewBox="0 0 134 49" fill="none" xmlns="http://www.w3.org/2000/svg">
<g clip-path="url(#clip0_8_2)">
<path d="M14.569 36.2985L17.6143 31.148C18.0392 30.4321 18.889 30.4321 19.3061 31.148L22.3513 36.2985C22.7841 37.0343 22.375 38.0883 21.6431 38.0883H15.2772C14.5454 38.0883 14.1283 37.0343 14.569 36.2985Z" fill="#873AAA"/>
<path d="M27.9137 35.7826L24.2146 29.5286L22.4237 26.5016L19.1888 21.0285C18.9133 20.5638 18.3623 20.5638 18.0918 21.0285L9.36694 35.7826C9.08121 36.2603 9.35163 36.9444 9.82614 36.9444H11.5354C11.9946 36.9444 12.4232 36.6733 12.6987 36.2086L18.1939 26.9211C18.4184 26.5467 18.8674 26.5467 19.0868 26.9211L20.6327 29.5286L22.4237 32.5556L24.5819 36.2086C24.8575 36.6733 25.286 36.9444 25.7452 36.9444H27.4545C27.929 36.9444 28.1944 36.2603 27.9137 35.7826Z" fill="url(#paint0_linear_8_2)"/>
<path d="M27.9137 14.8839L24.2146 21.1379L22.4237 24.1649L19.1888 29.6381C18.9133 30.1027 18.3623 30.1027 18.0918 29.6381L9.36694 14.8839C9.08121 14.4062 9.35163 13.7221 9.82614 13.7221H11.5354C11.9946 13.7221 12.4232 13.9932 12.6987 14.4579L18.1939 23.7454C18.4184 24.1198 18.8674 24.1198 19.0868 23.7454L20.6327 21.1379L22.4237 18.1109L24.5819 14.4579C24.8575 13.9932 25.286 13.7221 25.7452 13.7221H27.4545C27.929 13.7221 28.1944 14.4062 27.9137 14.8839Z" fill="url(#paint1_linear_8_2)"/>
</g>
<path d="M32.8 20.9H36.328L36.328 33.724H41.648V37H32.8L32.8 20.9ZM43.132 33.724V37L52.092 37V33.724L43.132 33.724ZM54.6072 20.9L54.6072 35.096L57.7992 37H63.5672V33.724H58.1352L58.1352 20.9H54.6072ZM73.8992 20.9V35.096L70.7352 37L64.9392 37V33.724L70.3712 33.724V20.9H73.8992ZM78.9289 20.9H82.1209L87.8889 26.332V30.56L82.4569 25.436V37H78.9289V20.9ZM98.2209 20.9H95.0569L89.2609 26.332V30.56L94.6929 25.436L94.6929 37H98.2209L98.2209 20.9ZM103.812 20.9L107.004 20.9L112.772 26.332V30.56L107.34 25.324L107.34 37H103.812L103.812 20.9ZM119.576 32.464V20.9H123.104L123.104 37H119.8L114.032 31.456V27.368L119.576 32.464ZM128.135 20.9H131.663V37H128.135V20.9Z" fill="url(#paint2_linear_8_2)"/>
<defs>
<linearGradient id="paint0_linear_8_2" x1="9.25" y1="28.8122" x2="28.0284" y2="28.8122" gradientUnits="userSpaceOnUse">
<stop stop-color="#873AAA"/>
<stop offset="1" stop-color="#DF007F"/>
</linearGradient>
<linearGradient id="paint1_linear_8_2" x1="9.25" y1="21.8543" x2="28.0284" y2="21.8543" gradientUnits="userSpaceOnUse">
<stop stop-color="#873AAA"/>
<stop offset="1" stop-color="#DF007F"/>
</linearGradient>
<linearGradient id="paint2_linear_8_2" x1="30" y1="28" x2="134" y2="28" gradientUnits="userSpaceOnUse">
<stop stop-color="#873AAA"/>
<stop offset="1" stop-color="#DF007F"/>
</linearGradient>
<clipPath id="clip0_8_2">
<rect width="37" height="38" fill="white"/>
</clipPath>
</defs>
</svg>
