<svg width="36" height="36" viewBox="0 0 36 36" fill="none" xmlns="http://www.w3.org/2000/svg">
<rect width="36" height="36" stroke="#BCC1CA"/>
<path d="M9.62297 23.9885L11.9136 20.976C12.2332 20.5573 12.8725 20.5573 13.1862 20.976L15.4769 23.9885C15.8024 24.4188 15.4947 25.0353 14.9442 25.0353H10.1557C9.60522 25.0353 9.29149 24.4188 9.62297 23.9885Z" fill="#C90B2F"/>
<path d="M34.244 24.0305L24.2745 10.9334C23.9597 10.5209 23.33 10.5209 23.021 10.9334L19.6628 15.3449C19.4646 15.6085 19.4646 15.9637 19.6628 16.2272L20.7764 17.6882C21.0737 18.0835 21.6743 18.0835 21.9774 17.6882L23.1434 16.1585C23.4 15.8204 23.913 15.8204 24.1637 16.1585L30.4428 24.4029C30.7576 24.8154 31.2473 25.056 31.7721 25.056H33.7252C34.2674 25.056 34.5764 24.4487 34.2499 24.0247L34.244 24.0305Z" fill="#CE0A86"/>
<path d="M22.9151 24.0252L18.6938 18.4757L16.65 15.7898L12.9586 10.9333C12.6441 10.5209 12.0153 10.5209 11.7067 10.9333L1.75015 24.0252C1.42408 24.449 1.73268 25.056 2.27417 25.056H4.22475C4.74877 25.056 5.23786 24.8155 5.55229 24.4031L11.8232 16.162C12.0794 15.8298 12.5917 15.8298 12.8421 16.162L14.6063 18.4757L16.65 21.1617L19.113 24.4031C19.4274 24.8155 19.9165 25.056 20.4405 25.056H22.3911C22.9326 25.056 23.2354 24.449 22.9151 24.0252Z" fill="#CE0A86"/>
</svg>
