<svg width="211" height="67" viewBox="0 0 211 67" fill="none" xmlns="http://www.w3.org/2000/svg">
<g clip-path="url(#clip0_8_3)">
<path d="M22.4448 56.3582L27.1362 48.3614C27.7907 47.2499 29.1 47.2499 29.7425 48.3614L34.4338 56.3582C35.1006 57.5006 34.4702 59.1371 33.3428 59.1371H23.5359C22.4085 59.1371 21.766 57.5006 22.4448 56.3582Z" fill="#873AAA"/>
<path d="M43.0022 55.5573L37.3035 45.8471L34.5445 41.1473L29.5612 32.6495C29.1367 31.928 28.2878 31.928 27.8712 32.6495L14.4301 55.5573C13.99 56.2989 14.4066 57.3611 15.1376 57.3611H17.7708C18.4782 57.3611 19.1385 56.9402 19.5629 56.2187L28.0284 41.7986C28.3743 41.2174 29.066 41.2174 29.4039 41.7986L31.7856 45.8471L34.5445 50.5469L37.8695 56.2187C38.2939 56.9402 38.9542 57.3611 39.6616 57.3611H42.2948C43.0258 57.3611 43.4345 56.2989 43.0022 55.5573Z" fill="url(#paint0_linear_8_3)"/>
<path d="M43.0022 23.1093L37.3035 32.8195L34.5445 37.5193L29.5612 46.0171C29.1367 46.7386 28.2878 46.7386 27.8712 46.0171L14.4301 23.1093C13.99 22.3677 14.4066 21.3055 15.1376 21.3055H17.7708C18.4782 21.3055 19.1385 21.7264 19.5629 22.4479L28.0284 36.868C28.3743 37.4493 29.066 37.4493 29.4039 36.868L31.7856 32.8195L34.5445 28.1197L37.8695 22.4479C38.2939 21.7264 38.9542 21.3055 39.6616 21.3055H42.2948C43.0258 21.3055 43.4345 22.3677 43.0022 23.1093Z" fill="url(#paint1_linear_8_3)"/>
</g>
<path d="M50.6 30.3H55.136L55.136 46.788H61.976V51L50.6 51L50.6 30.3ZM63.884 46.788V51H75.404V46.788L63.884 46.788ZM78.6378 30.3V48.552L82.7418 51H90.1578V46.788L83.1738 46.788V30.3H78.6378ZM103.442 30.3V48.552L99.3738 51H91.9218V46.788H98.9058V30.3H103.442ZM109.909 30.3H114.013L121.429 37.284V42.72L114.445 36.132L114.445 51H109.909V30.3ZM134.713 30.3H130.645L123.193 37.284V42.72L130.177 36.132V51H134.713V30.3ZM141.901 30.3L146.005 30.3L153.421 37.284V42.72L146.437 35.988V51H141.901V30.3ZM162.169 45.168V30.3H166.705V51H162.457L155.041 43.872V38.616L162.169 45.168ZM173.173 30.3L177.709 30.3V51L173.173 51V30.3Z" fill="white"/>
<defs>
<linearGradient id="paint0_linear_8_3" x1="14.25" y1="44.7348" x2="43.179" y2="44.7348" gradientUnits="userSpaceOnUse">
<stop stop-color="#873AAA"/>
<stop offset="1" stop-color="#DF007F"/>
</linearGradient>
<linearGradient id="paint1_linear_8_3" x1="14.25" y1="33.9319" x2="43.179" y2="33.9319" gradientUnits="userSpaceOnUse">
<stop stop-color="#873AAA"/>
<stop offset="1" stop-color="#DF007F"/>
</linearGradient>
<clipPath id="clip0_8_3">
<rect width="57" height="59" fill="white"/>
</clipPath>
</defs>
</svg>
